<?xml version="1.0" standalone="no"?>
<!DOCTYPE svg PUBLIC "-//W3C//DTD SVG 20010904//EN"
 "http://www.w3.org/TR/2001/REC-SVG-20010904/DTD/svg10.dtd">
<svg version="1.0" xmlns="http://www.w3.org/2000/svg"
 width="500.000000pt" height="500.000000pt" viewBox="0 0 500.000000 500.000000"
 preserveAspectRatio="xMidYMid meet">

<g transform="translate(0.000000,500.000000) scale(0.100000,-0.100000)"
fill="#000000" stroke="none">
<path d="M1814 2761 c-17 -10 -40 -32 -52 -47 l-21 -29 -1 38 0 37 -90 0 -90
0 0 -360 0 -360 95 0 95 0 0 244 c0 243 0 245 23 272 20 23 34 28 85 32 l62 4
0 88 c0 71 -3 89 -16 94 -28 11 -58 6 -90 -13z"/>
<path d="M2293 2770 c-17 -6 -45 -24 -61 -40 l-30 -29 -6 29 -5 30 -86 0 -85
0 0 -500 0 -500 95 0 95 0 0 167 c0 157 1 165 18 151 89 -79 232 -58 295 44
43 69 57 137 57 283 0 200 -36 303 -121 347 -44 23 -122 31 -166 18z m65 -172
c55 -60 57 -323 2 -390 -24 -30 -98 -32 -129 -4 -20 18 -21 29 -21 198 0 165
1 179 20 198 29 29 99 28 128 -2z"/>
<path d="M2887 2769 c-56 -13 -89 -33 -129 -77 -59 -65 -73 -123 -73 -297 0
-150 0 -151 33 -218 19 -39 47 -78 67 -93 65 -49 181 -68 266 -42 82 24 153
111 166 203 l6 45 -85 0 -85 0 -12 -40 c-20 -69 -85 -91 -136 -47 -23 19 -28
35 -36 102 -10 85 -4 209 12 263 12 38 35 52 83 52 43 0 63 -20 78 -76 l12
-44 83 0 83 0 0 28 c0 16 -7 53 -16 83 -37 125 -172 192 -317 158z"/>
<path d="M3370 2520 c-21 -21 -27 -79 -10 -96 7 -7 2 -25 -15 -56 -87 -156 2
-315 190 -338 150 -19 290 48 325 156 17 49 6 126 -24 180 -23 41 -23 46 -10
73 13 27 13 33 0 59 -24 47 -66 55 -101 22 -20 -19 -24 -19 -58 -5 -46 19
-108 19 -154 0 -34 -14 -37 -14 -55 5 -24 26 -62 26 -88 0z m327 -31 c72 -35
143 -129 158 -212 18 -94 -49 -187 -161 -222 -115 -36 -275 -2 -333 71 -63 80
-47 200 40 298 81 92 188 116 296 65z"/>
<path d="M3477 2406 c-46 -17 -64 -31 -83 -69 -27 -51 4 -117 55 -117 60 0
121 69 121 137 0 53 -32 70 -93 49z m52 -59 c15 -19 4 -27 -43 -28 -32 0 -37
-2 -21 -9 19 -8 19 -9 -2 -9 -18 -1 -23 5 -23 22 0 13 3 27 7 30 12 12 70 7
82 -6z"/>
<path d="M3617 2403 c-13 -12 -7 -75 10 -110 30 -63 111 -94 146 -55 41 45 27
109 -32 149 -33 22 -109 32 -124 16z m121 -75 c3 -24 0 -28 -20 -27 -22 0 -22
1 -3 9 16 7 11 9 -21 9 -47 1 -58 9 -42 28 7 9 25 13 47 11 31 -3 36 -7 39
-30z"/>
<path d="M3562 2183 c-20 -8 -3 -23 28 -23 33 0 48 15 24 24 -18 7 -33 7 -52
-1z"/>
</g>
</svg>
